<svg id="svgviewer-output_32_" data-name="svgviewer-output (32)" xmlns="http://www.w3.org/2000/svg" width="30" height="30" viewBox="0 0 30 30">
  <g id="Group_13072" data-name="Group 13072">
    <path id="Path_32129" data-name="Path 32129" d="M26.768,1.883H24.352v-1a.879.879,0,0,0-1.758,0v1H18.7v-1a.879.879,0,0,0-1.758,0v1H13.055v-1a.879.879,0,0,0-1.758,0v1H7.406v-1a.879.879,0,1,0-1.758,0v1H3.232A3.236,3.236,0,0,0,0,5.115V26.768A3.236,3.236,0,0,0,3.232,30H26.768A3.236,3.236,0,0,0,30,26.768V5.115a3.236,3.236,0,0,0-3.232-3.232ZM3.232,3.641H5.648v1a.879.879,0,1,0,1.758,0v-1H11.3v1a.879.879,0,1,0,1.758,0v-1h3.891v1a.879.879,0,1,0,1.758,0v-1h3.891v1a.879.879,0,1,0,1.758,0v-1h2.416a1.476,1.476,0,0,1,1.475,1.475V7.531H1.758V5.115A1.476,1.476,0,0,1,3.232,3.641Zm23.535,24.6H3.232a1.476,1.476,0,0,1-1.475-1.475V9.289H28.242V26.768A1.476,1.476,0,0,1,26.768,28.242Z" transform="translate(0)" fill="#4ec4b2"/>
    <path id="Path_32130" data-name="Path 32130" d="M76.944,208.867H73.178a.879.879,0,0,0-.879.879v3.766a.879.879,0,0,0,.879.879h3.766a.879.879,0,0,0,.879-.879v-3.766A.879.879,0,0,0,76.944,208.867Zm-.879,3.766H74.057v-2.008h2.008Z" transform="translate(-68.063 -196.629)" fill="#4ec4b2"/>
    <path id="Path_32131" data-name="Path 32131" d="M350.078,208.867h-3.766a.879.879,0,0,0-.879.879v3.766a.879.879,0,0,0,.879.879h3.766a.879.879,0,0,0,.879-.879v-3.766A.879.879,0,0,0,350.078,208.867Zm-.879,3.766h-2.008v-2.008H349.2Z" transform="translate(-325.193 -196.629)" fill="#4ec4b2"/>
    <path id="Path_32132" data-name="Path 32132" d="M76.944,337.4H73.178a.879.879,0,0,0-.879.879v3.766a.879.879,0,0,0,.879.879h3.766a.879.879,0,0,0,.879-.879v-3.766A.879.879,0,0,0,76.944,337.4Zm-.879,3.766H74.057v-2.008h2.008Z" transform="translate(-68.063 -317.63)" fill="#4ec4b2"/>
    <path id="Path_32133" data-name="Path 32133" d="M350.078,337.4h-3.766a.879.879,0,0,0-.879.879v3.766a.879.879,0,0,0,.879.879h3.766a.879.879,0,0,0,.879-.879v-3.766A.879.879,0,0,0,350.078,337.4Zm-.879,3.766h-2.008v-2.008H349.2Z" transform="translate(-325.193 -317.63)" fill="#4ec4b2"/>
    <path id="Path_32134" data-name="Path 32134" d="M213.51,337.4h-3.766a.879.879,0,0,0-.879.879v3.766a.879.879,0,0,0,.879.879h3.766a.879.879,0,0,0,.879-.879v-3.766A.879.879,0,0,0,213.51,337.4Zm-.879,3.766h-2.008v-2.008h2.008Z" transform="translate(-196.627 -317.63)" fill="#4ec4b2"/>
    <path id="Path_32135" data-name="Path 32135" d="M211.17,218.537l-2.041,2.041-.71-.71a.879.879,0,0,0-1.243,1.243l1.331,1.331a.879.879,0,0,0,1.243,0l2.663-2.663a.879.879,0,0,0-1.243-1.243Z" transform="translate(-194.794 -205.49)" fill="#4ec4b2"/>
  </g>
</svg>
