<svg xmlns="http://www.w3.org/2000/svg" width="45.506" height="30.656" viewBox="0 0 45.506 30.656">
  <g id="Group_353" data-name="Group 353" transform="translate(-139.212 -216.047)">
    <path id="Path_433" data-name="Path 433" d="M148.823,216.49a6.141,6.141,0,1,0,4.347,10.463,8.826,8.826,0,0,1,1.316-6.677,6.163,6.163,0,0,0-5.664-3.786Zm26.31,0a6.165,6.165,0,0,0-5.664,3.783,8.833,8.833,0,0,1,1.316,6.68,6.137,6.137,0,1,0,4.347-10.463Zm-13.154,2.569a6.141,6.141,0,1,0,6.141,6.141A6.163,6.163,0,0,0,161.978,219.062Zm-13.154,10.771a9.607,9.607,0,0,0-9.594,9.6v3.717h0a1.422,1.422,0,0,0,1.417,1.428h8.894V242.01a12.176,12.176,0,0,1,5.4-9.957,9.568,9.568,0,0,0-6.116-2.219Zm26.31.005a9.546,9.546,0,0,0-6.108,2.217,12.169,12.169,0,0,1,5.4,9.955v2.569h8.886a1.423,1.423,0,0,0,1.422-1.422v-3.714a9.614,9.614,0,0,0-9.6-9.6ZM161.979,232.4a9.607,9.607,0,0,0-9.594,9.6v3.717h0a1.422,1.422,0,0,0,1.417,1.419h16.354a1.422,1.422,0,0,0,1.428-1.419V242.01a9.616,9.616,0,0,0-9.6-9.6Z" transform="translate(-0.018 -0.443)" fill="#ff3b9e"/>
  </g>
</svg>
